# xmcd
#
# Track frame offsets:
#	150
#	17642
#	34745
#	52865
#	67297
#	81047
#	98715
#	114072
#	126217
#	143932
#	162272
#	175710
#	185842
#	199265
#	210780
#	221452
#
# Disc length: 3100 seconds
#
# Revision: 5
# Processed by: cddbd v1.5.2PL0 Copyright (c) Steve Scherf et al.
# Submitted via: EasyCDDAExtractor 10.2.0.1
#
DISCID=d80c1a10
DTITLE=Marvin Gaye - The Universal Masters Collection
DYEAR=1999
DGENRE=Blues
TTITLE0=What's Going On
TTITLE1=Trouble Man
TTITLE2=Let's Get It On
TTITLE3=Mercy Mercy Me (The Ecology)
TTITLE4=Inner City Blues (Make Me Wanna Holler)
TTITLE5=Distant Lover (Live)
TTITLE6=You're A Special Part Of Me (Duet With Diana Ross)
TTITLE7=Come Get To This
TTITLE8=I Want You
TTITLE9=Got To Give It Up, Part 1
TTITLE10=It Takes Two (Duet With Kim Weston)
TTITLE11=Ain't Nothing Like The Real Thing (Duet With Tammi Terrel)
TTITLE12=Onion Song (Duet With Tammi Terrel)
TTITLE13=Little Darlin' (I Need You)
TTITLE14=If I Could Build My Whole World Around You (Duet With Tammi Terrel)
TTITLE15=Good Lovin' Ain't Easy To Come By (Duet With Tammi Terrel)
EXTD=
EXTT0=
EXTT1=
EXTT2=
EXTT3=
EXTT4=
EXTT5=
EXTT6=
EXTT7=
EXTT8=
EXTT9=
EXTT10=
EXTT11=
EXTT12=
EXTT13=
EXTT14=
EXTT15=
PLAYORDER=
